Normalized EMG Linear Envelopes
nRows=124
nColumns=4

endheader
time	 med_gas_r	  soleus_r	 tib_ant_r	
2.57661	  0.003231	  0.005543	  0.001634	
2.64819	  0.003275	  0.005253	  0.001582	
2.71976	  0.003335	  0.004979	  0.001540	
2.79133	  0.003261	  0.004879	  0.001552	
2.8629	  0.003140	  0.004976	  0.001608	
2.93448	  0.002991	  0.005147	  0.001673	
3.00605	  0.002919	  0.005370	  0.001716	
3.07762	  0.003011	  0.005719	  0.001738	
3.14919	  0.003123	  0.006097	  0.001728	
3.22077	  0.003206	  0.006344	  0.001690	
3.29234	  0.003339	  0.006443	  0.001638	
3.36391	  0.003572	  0.006443	  0.001592	
3.43548	  0.003699	  0.006361	  0.001550	
3.50706	  0.003619	  0.006062	  0.001544	
3.57863	  0.003492	  0.005698	  0.001545	
3.6502	  0.003314	  0.005520	  0.001560	
3.72177	  0.003154	  0.005548	  0.001598	
3.79335	  0.003127	  0.005570	  0.001636	
3.86492	  0.003261	  0.005517	  0.001651	
3.93649	  0.003474	  0.005448	  0.001658	
4.00806	  0.003613	  0.005340	  0.001667	
4.07964	  0.003596	  0.005319	  0.001691	
4.15121	  0.003568	  0.005353	  0.001708	
4.22278	  0.003573	  0.005314	  0.001711	
4.29435	  0.003502	  0.005323	  0.001705	
4.36593	  0.003368	  0.005469	  0.001699	
4.4375	  0.003357	  0.005737	  0.001703	
4.50907	  0.003436	  0.006271	  0.001755	
4.58065	  0.003612	  0.006951	  0.001815	
4.65222	  0.003778	  0.007092	  0.001830	
4.72379	  0.003615	  0.005589	  0.001754	
4.79536	  0.002784	  0.001177	  0.001519	
4.86694	  0.001020	 -0.006715	  0.001107	
4.93851	 -0.001458	 -0.015311	  0.000677	
5.01008	 -0.002735	 -0.014062	  0.000793	
5.08165	  0.002405	  0.019917	  0.002669	
5.15323	  0.022741	  0.118313	  0.007921	
5.2248	  0.066376	  0.296738	  0.017207	
5.29637	  0.126940	  0.493640	  0.026948	
5.36794	  0.174061	  0.585432	  0.030289	
5.43952	  0.206844	  0.562130	  0.028113	
5.51109	  0.243479	  0.495132	  0.024669	
5.58266	  0.266862	  0.434140	  0.022062	
5.65423	  0.267984	  0.402233	  0.020115	
5.72581	  0.255273	  0.412302	  0.018865	
5.79738	  0.244102	  0.445901	  0.019380	
5.86895	  0.246502	  0.470421	  0.021170	
5.94052	  0.260026	  0.475309	  0.022844	
6.0121	  0.278694	  0.459897	  0.024038	
6.08367	  0.299280	  0.438902	  0.024442	
6.15524	  0.317991	  0.427758	  0.024230	
6.22681	  0.330770	  0.423543	  0.023733	
6.29839	  0.343858	  0.417693	  0.024274	
6.36996	  0.366084	  0.419188	  0.026173	
6.44153	  0.404471	  0.441922	  0.028232	
6.5131	  0.439887	  0.473326	  0.029350	
6.58468	  0.445595	  0.476760	  0.029068	
6.65625	  0.432771	  0.458208	  0.028065	
6.72782	  0.426749	  0.442038	  0.027259	
6.7994	  0.427560	  0.432200	  0.026870	
6.87097	  0.433198	  0.416729	  0.026922	
6.94254	  0.444763	  0.397951	  0.027323	
7.01411	  0.461238	  0.388993	  0.027755	
7.08569	  0.462714	  0.396801	  0.027956	
7.15726	  0.451984	  0.423343	  0.027975	
7.22883	  0.447665	  0.467283	  0.029180	
7.3004	  0.462295	  0.504391	  0.031988	
7.37198	  0.489743	  0.514903	  0.035762	
7.44355	  0.515382	  0.512919	  0.038424	
7.51512	  0.517552	  0.514325	  0.038298	
7.58669	  0.505737	  0.519725	  0.036378	
7.65827	  0.505755	  0.518798	  0.034211	
7.72984	  0.522540	  0.511753	  0.033593	
7.80141	  0.547342	  0.498593	  0.035048	
7.87298	  0.562569	  0.488348	  0.037164	
7.94456	  0.546225	  0.469846	  0.037579	
8.01613	  0.511448	  0.438525	  0.036215	
8.0877	  0.493894	  0.417764	  0.034456	
8.15927	  0.485272	  0.407979	  0.032117	
8.23085	  0.470788	  0.388962	  0.029434	
8.30242	  0.446632	  0.377520	  0.028299	
8.37399	  0.418679	  0.386227	  0.028217	
8.44556	  0.402562	  0.393151	  0.028336	
8.51714	  0.398099	  0.384120	  0.028866	
8.58871	  0.388379	  0.367101	  0.029718	
8.66028	  0.375143	  0.349406	  0.029837	
8.73185	  0.364487	  0.335250	  0.029271	
8.80343	  0.367583	  0.322491	  0.028228	
8.875	  0.387273	  0.322449	  0.026834	
8.94657	  0.418944	  0.334170	  0.026560	
9.01815	  0.442940	  0.350446	  0.027154	
9.08972	  0.431841	  0.373072	  0.027411	
9.16129	  0.394873	  0.398421	  0.026576	
9.23286	  0.370337	  0.406300	  0.025662	
9.30444	  0.369660	  0.399266	  0.025455	
9.37601	  0.388876	  0.396290	  0.025442	
9.44758	  0.412180	  0.401685	  0.025780	
9.51915	  0.431963	  0.415003	  0.028102	
9.59073	  0.455286	  0.434989	  0.032190	
9.6623	  0.494576	  0.465179	  0.036223	
9.73387	  0.549095	  0.489080	  0.037959	
9.80544	  0.600520	  0.508192	  0.038194	
9.87702	  0.650107	  0.527084	  0.038702	
9.94859	  0.681912	  0.527139	  0.039229	
10.0202	  0.672554	  0.502334	  0.037618	
10.0917	  0.617642	  0.476445	  0.035255	
10.1633	  0.550937	  0.467195	  0.034096	
10.2349	  0.492550	  0.463570	  0.033853	
10.3065	  0.445701	  0.455041	  0.032984	
10.378	  0.409712	  0.434473	  0.030461	
10.4496	  0.361021	  0.382655	  0.026927	
10.5212	  0.270466	  0.277174	  0.023252	
10.5927	  0.159455	  0.165909	  0.020488	
10.6643	  0.069926	  0.087099	  0.017170	
10.7359	  0.018789	  0.039390	  0.013342	
10.8075	 -0.000575	  0.014887	  0.008656	
10.879	 -0.003733	  0.004705	  0.004648	
10.9506	 -0.001403	  0.002174	  0.002357	
11.0222	  0.001406	  0.002753	  0.001504	
11.0937	  0.003145	  0.004107	  0.001447	
11.1653	  0.003883	  0.005203	  0.001643	
11.2369	  0.004038	  0.005775	  0.001791	
11.3085	  0.003894	  0.005975	  0.001811	
11.38	  0.003614	  0.006076	  0.001748	
